<svg width="27" height="27" viewBox="0 0 27 27" fill="none" xmlns="http://www.w3.org/2000/svg">
<path d="M13.5 6.53614C15.753 6.53614 16.0602 6.53614 16.9819 6.53614C17.8012 6.53614 18.2108 6.74096 18.5181 6.84337C18.9277 7.04819 19.2349 7.1506 19.5422 7.45783C19.8494 7.76506 20.0542 8.07229 20.1566 8.48193C20.259 8.78916 20.3614 9.1988 20.4639 10.0181C20.4639 10.9398 20.4639 11.1446 20.4639 13.5C20.4639 15.8554 20.4639 16.0602 20.4639 16.9819C20.4639 17.8012 20.259 18.2108 20.1566 18.5181C19.9518 18.9277 19.8494 19.2349 19.5422 19.5422C19.2349 19.8494 18.9277 20.0542 18.5181 20.1566C18.2108 20.259 17.8012 20.3614 16.9819 20.4639C16.0602 20.4639 15.8554 20.4639 13.5 20.4639C11.1446 20.4639 10.9398 20.4639 10.0181 20.4639C9.1988 20.4639 8.78916 20.259 8.48193 20.1566C8.07229 19.9518 7.76506 19.8494 7.45783 19.5422C7.1506 19.2349 6.94578 18.9277 6.84337 18.5181C6.74096 18.2108 6.63855 17.8012 6.53614 16.9819C6.53614 16.0602 6.53614 15.8554 6.53614 13.5C6.53614 11.1446 6.53614 10.9398 6.53614 10.0181C6.53614 9.1988 6.74096 8.78916 6.84337 8.48193C7.04819 8.07229 7.1506 7.76506 7.45783 7.45783C7.76506 7.1506 8.07229 6.94578 8.48193 6.84337C8.78916 6.74096 9.1988 6.63855 10.0181 6.53614C10.9398 6.53614 11.247 6.53614 13.5 6.53614ZM13.5 5C11.1446 5 10.9398 5 10.0181 5C9.09639 5 8.48193 5.20482 7.96988 5.40964C7.45783 5.61446 6.94578 5.92169 6.43374 6.43374C5.92169 6.94578 5.71687 7.35542 5.40964 7.96988C5.20482 8.48193 5.10241 9.09639 5 10.0181C5 10.9398 5 11.247 5 13.5C5 15.8554 5 16.0602 5 16.9819C5 17.9036 5.20482 18.5181 5.40964 19.0301C5.61446 19.5422 5.92169 20.0542 6.43374 20.5663C6.94578 21.0783 7.35542 21.2831 7.96988 21.5904C8.48193 21.7952 9.09639 21.8976 10.0181 22C10.9398 22 11.247 22 13.5 22C15.753 22 16.0602 22 16.9819 22C17.9036 22 18.5181 21.7952 19.0301 21.5904C19.5422 21.3855 20.0542 21.0783 20.5663 20.5663C21.0783 20.0542 21.2831 19.6446 21.5904 19.0301C21.7952 18.5181 21.8976 17.9036 22 16.9819C22 16.0602 22 15.753 22 13.5C22 11.247 22 10.9398 22 10.0181C22 9.09639 21.7952 8.48193 21.5904 7.96988C21.3855 7.45783 21.0783 6.94578 20.5663 6.43374C20.0542 5.92169 19.6446 5.71687 19.0301 5.40964C18.5181 5.20482 17.9036 5.10241 16.9819 5C16.0602 5 15.8554 5 13.5 5Z" fill="#22C55E"/>
<path d="M13.5 9.09639C11.0422 9.09639 9.09639 11.0422 9.09639 13.5C9.09639 15.9578 11.0422 17.9036 13.5 17.9036C15.9578 17.9036 17.9036 15.9578 17.9036 13.5C17.9036 11.0422 15.9578 9.09639 13.5 9.09639ZM13.5 16.3675C11.9639 16.3675 10.6325 15.1386 10.6325 13.5C10.6325 11.9639 11.8614 10.6325 13.5 10.6325C15.0361 10.6325 16.3675 11.8614 16.3675 13.5C16.3675 15.0361 15.0361 16.3675 13.5 16.3675Z" fill="#22C55E"/>
<path d="M18.006 10.0181C18.5716 10.0181 19.0301 9.55957 19.0301 8.99398C19.0301 8.42838 18.5716 7.96988 18.006 7.96988C17.4404 7.96988 16.9819 8.42838 16.9819 8.99398C16.9819 9.55957 17.4404 10.0181 18.006 10.0181Z" fill="#22C55E"/>
</svg>
