<svg width="25" height="25" viewBox="0 0 25 25" fill="none" xmlns="http://www.w3.org/2000/svg">
<path d="M9.15001 19H6.175V9.6375H9.15001V19ZM7.6625 8.325C6.7 8.325 6 7.625 6 6.6625C6 5.7 6.7875 5 7.6625 5C8.625 5 9.325 5.7 9.325 6.6625C9.325 7.625 8.625 8.325 7.6625 8.325ZM20 19H17.025V13.925C17.025 12.4375 16.4125 12 15.5375 12C14.6625 12 13.7875 12.7 13.7875 14.0125V19H10.8125V9.6375H13.6125V10.95C13.875 10.3375 14.925 9.375 16.4125 9.375C18.075 9.375 19.825 10.3375 19.825 13.225V19H20Z" fill="#EAB308"/>
</svg>
