<svg xmlns="http://www.w3.org/2000/svg" viewBox="0 0 500 500"><defs><style>.cls-1{isolation:isolate;}.cls-2,.cls-3{fill:#fbd1b5;}.cls-3,.cls-4,.cls-8,.cls-9{mix-blend-mode:multiply;}.cls-15,.cls-4{fill:#ecb89a;}.cls-5{fill:#9f5324;}.cls-6,.cls-9{fill:#f9d5be;}.cls-6{stroke:#9f5324;stroke-width:3px;}.cls-11,.cls-12,.cls-19,.cls-6{stroke-miterlimit:10;}.cls-19,.cls-7{fill:#231f20;}.cls-8{fill:#583518;}.cls-10{fill:#fcc39d;}.cls-10,.cls-17{opacity:0.5;}.cls-11,.cls-23{fill:#fff;}.cls-11,.cls-12,.cls-19{stroke:#231f20;}.cls-11{stroke-width:0.5px;}.cls-12{fill:#ec2227;stroke-width:0.25px;}.cls-13{fill:#f2f2f2;}.cls-14{fill:#e6e7e7;opacity:0.2;}.cls-16{fill:#2f160d;}.cls-17{fill:#434342;}.cls-18{fill:#fdede4;opacity:0.7;}.cls-20{fill:#ef625b;}.cls-21{fill:#765a47;}.cls-22{fill:#ec7d77;}.cls-24{fill:#ea9795;}</style></defs><g class="cls-1"><g id="Layer_1" data-name="Layer 1"><path class="cls-2" d="M111.78,303.33c-2.73-9-6.91-18-13-25.28-3.69-7.08-8.59-13.59-13.57-19.78-3.33-4.16-8.77-10.78-14.85-10.33-12.16.89-15.67,22.9-14.27,32.25,1,6.83,6.34,12.62,10.55,17.7,6.38,7.68,9.92,17.41,15.45,25.67,6.14,9.2,19.32,16.1,29.77,9.73a1.44,1.44,0,0,0,2.25-.57C118,324.34,114.27,311.58,111.78,303.33Z"/><path class="cls-3" d="M111.78,303.33c-2.73-9-6.91-18-13-25.28-3.69-7.08-8.59-13.59-13.57-19.78-3.11-3.89-8.1-9.88-13.71-10.26,7.44,6.28,11.4,15.36,11.41,26.74a1.63,1.63,0,0,1-1.76,1.48c-6.13-.62-15.71-5.41-20.11,2.24a15.14,15.14,0,0,0-1.68,9.95,88.33,88.33,0,0,0,7.28,9.47c6.38,7.68,9.92,17.41,15.45,25.67,6.14,9.2,19.32,16.1,29.77,9.73a1.44,1.44,0,0,0,2.25-.57C118,324.34,114.27,311.58,111.78,303.33Z"/><path class="cls-4" d="M71.93,287.53c.79,1.43,9.24,20.44,9.9,19.81,3.48-3.38,8.67,7.18,9.85,8.88,4.35,6.27,8.06,12.93,12,19.49a16.67,16.67,0,0,0,7.58-2.1c-5.83-11.29-13.43-21.47-20-32.39-3.47-5.79-6.61-15.82-12.31-19.6-4.73-3.16-10-2.58-14.94-.78A13.88,13.88,0,0,1,71.93,287.53Z"/><path class="cls-5" d="M63.26,280.75c-.14.08,0,.25.13.21,9.9-3.41,16.42,3.75,21.65,12.64a.87.87,0,0,0-.92.45c-2.22,3.63-3.21,7.68-4,11.8-.08.4.49.44.64.14,1.74-3.57,3.3-7.22,5.11-10.74a.42.42,0,0,0,0-.15c4,7,7.2,14.79,10.7,19.17.28.35.8,0,.63-.42C92.32,302.46,81.83,268.28,63.26,280.75Z"/><path class="cls-5" d="M111.78,303.33c-2.73-9-6.91-18-13-25.28-3.69-7.08-8.59-13.59-13.57-19.78-3.33-4.16-8.77-10.78-14.85-10.33-12.16.89-15.67,22.9-14.27,32.25,1,6.83,6.34,12.62,10.55,17.7,6.38,7.68,9.92,17.41,15.45,25.67,6.14,9.2,19.32,16.1,29.77,9.73a1.44,1.44,0,0,0,2.25-.57C118,324.34,114.27,311.58,111.78,303.33Zm-.5,27.65c-3.75.19-7.36.86-11.19.52-7.55-.69-12.58-6.53-16.44-12.39-6.18-9.46-11.93-18.57-19.3-27.19-4.55-5.32-7.16-11-6.74-18.09.39-6.66,4.61-20.29,11.79-22.28,6.24-1.72,14.17,9,17.79,12.84a95.61,95.61,0,0,1,8.45,11,.35.35,0,0,0,0,.47C108.28,291,111.34,312.05,111.28,331Z"/><path class="cls-2" d="M403.82,335.87a1.41,1.41,0,0,0,2.25.36c10.84,5.32,23.16-2.66,28.35-12.25,4.68-8.61,7.26-18.49,12.83-26.6,3.67-5.36,8.36-11.52,8.74-18.32.52-9.32-4.92-30.58-16.95-30.37-6,.11-10.74,7.12-13.63,11.48-4.32,6.54-8.54,13.37-11.52,20.65-5.35,7.66-8.61,16.95-10.48,26C401.7,315.14,399.27,328,403.82,335.87Z"/><path class="cls-3" d="M403.41,306.84c1.87-9.07,5.13-18.36,10.48-26,3-7.28,7.2-14.11,11.52-20.65,2.72-4.1,7.06-10.42,12.53-11.3-6.73,6.84-9.81,16.1-8.77,27.28a1.61,1.61,0,0,0,1.87,1.29c6-1.16,14.93-6.75,19.93.38a14.91,14.91,0,0,1,2.56,9.6,86.44,86.44,0,0,1-6.28,10c-5.57,8.11-8.15,18-12.83,26.6-5.19,9.59-17.51,17.57-28.35,12.25a1.41,1.41,0,0,1-2.25-.36C399.27,328,401.7,315.14,403.41,306.84Z"/><path class="cls-4" d="M441.09,287.69c-.66,1.48-7.22,20.91-7.92,20.34-3.74-3-7.85,7.84-8.86,9.62-3.72,6.54-6.74,13.42-10,20.21a16.43,16.43,0,0,1-7.64-1.37c4.7-11.6,11.24-22.29,16.69-33.6,2.9-6,5.07-16.12,10.32-20.37,4.35-3.52,9.58-3.43,14.6-2.12A13.6,13.6,0,0,0,441.09,287.69Z"/><path class="cls-5" d="M449,280.25c.14.07,0,.25-.12.22-10-2.45-15.76,5.17-20.09,14.37a.87.87,0,0,1,1,.37c2.49,3.35,3.84,7.23,5,11.2.12.39-.44.49-.63.2-2-3.33-3.88-6.78-6-10.06,0-.05,0-.1-.05-.15-3.24,7.25-5.72,15.16-8.76,19.77-.23.38-.78.05-.66-.35C422.42,304.19,429.61,269.7,449,280.25Z"/><path class="cls-5" d="M403.82,335.87a1.41,1.41,0,0,0,2.25.36c10.84,5.32,23.16-2.66,28.35-12.25,4.68-8.61,7.26-18.49,12.83-26.6,3.67-5.36,8.36-11.52,8.74-18.32.52-9.32-4.92-30.58-16.95-30.37-6,.11-10.74,7.12-13.63,11.48-4.32,6.54-8.54,13.37-11.52,20.65-5.35,7.66-8.61,16.95-10.48,26C401.7,315.14,399.27,328,403.82,335.87Zm12.93-57.45a.39.39,0,0,0-.05-.48A91.36,91.36,0,0,1,424,266.38c3.2-4.08,10-15.35,16.28-14.23,7.22,1.3,12.61,14.29,13.59,20.79,1.06,6.88-1,12.74-5,18.37-6.45,9.13-11.27,18.59-16.48,28.44-3.25,6.12-7.66,12.29-15,13.65-3.73.7-7.33.36-11,.52C404.63,315.33,405.72,294.44,416.75,278.42Z"/><path class="cls-6" d="M137.2,170.42s34.43-90.48,108.1-92.89c0,0,85.67-20,144.12,88.08,0,0,28,83.27,10.42,197,0,0-11.21,65.65-78.47,116.9,0,0-96.09,59.25-179.36-63.26,0,0-49.11-74.2-19.22-204.44Z"/><path class="cls-7" d="M359.34,220.14a26.24,26.24,0,0,0-9.18-5.26c-8.11-3.33-19.35-6.46-29.62-5.78-7.54.5-30.11,1.81-39.23,8.81a52.12,52.12,0,0,0-.1,7.28c-.12-.11-.26-.21-.36-.31l-.17-.2a13.16,13.16,0,0,0,1.24,4.75c.21.09.38.21.6.29a1.34,1.34,0,0,0,.74,0,6.23,6.23,0,0,0,.51.62c16.54-5.75,30.45-12,49.77-9.45,13.43,1.75,27.17,5.71,36,13.61A29.44,29.44,0,0,0,359.34,220.14Z"/><path class="cls-8" d="M349.16,219.92c-13.56-5.83-27.64-4.93-41.46-1.46-5.3,1.34-10.91,2.63-15.46,5.11-2.09,1.12-4.53,2.79-7.09,3.35a8.31,8.31,0,0,1-4.17-.15,11.71,11.71,0,0,0,.94,2.66c.21.09.38.21.6.29a1.34,1.34,0,0,0,.74,0,6.23,6.23,0,0,0,.51.62c16.54-5.75,30.45-12,49.77-9.45,10.24,1.33,20.63,4,28.91,8.63A40.09,40.09,0,0,0,349.16,219.92Z"/><path class="cls-9" d="M333.64,219.46c-8.86-.06-16.81-2.51-25.31-1-7.39,1.3-20.58,10.15-27.55,7.08a11.27,11.27,0,0,0,2.57,6.07c6.24.27,16.17-3.27,20.93-4.08,23-3.89,43.79-6.05,63,7.87.62.45,1.84-.25,1.57-.83C363.76,223.17,347.51,219.55,333.64,219.46Z"/><path class="cls-7" d="M244.9,228a17.19,17.19,0,0,0,.95-4.16c-.29.48-.57.95-.83,1.35-.1.14-.22.26-.31.4,0-1.17.32-5.12,0-6.3-10.21-7-34.42-7.29-42.13-7.07-10.51.3-21.4,4.25-29.16,8.84a26.09,26.09,0,0,0-8.6,6.9,33.11,33.11,0,0,0-8.35,17.26c7.85-9.83,21.23-15.73,34.61-19.1,19.07-4.8,33.93.65,51.28,5.41A6.46,6.46,0,0,0,244.9,228Z"/><path class="cls-8" d="M244.9,228l.2-.62a7.7,7.7,0,0,1-4.17.57c-2.67-.36-5.36-2-7.62-3.06-5-2.33-10.84-3.21-16.37-4.17-14.5-2.5-28.88-2.06-41.83,5.93a40.27,40.27,0,0,0-12.17,12.23c7.76-6.14,17.94-10.2,28.13-12.76,19.07-4.8,33.93.65,51.28,5.41A6.46,6.46,0,0,0,244.9,228Z"/><path class="cls-9" d="M244.9,228c.23-.73.49-1.56.69-2.4-6.42,4.87-21.47-4.11-29.31-4.83-8.81-.81-16.53,2.78-25.5,3.76-14.05,1.55-30,7.32-33.62,20.72-.18.68,1.15,1.35,1.72.78,17.54-17.74,38.86-17.43,62.76-15.42,3.73.32,10.69,2.1,16.58,2.54C242,232.24,243.89,231.05,244.9,228Z"/><path class="cls-10" d="M162.94,270.77s19.78,22.21,44.3,15.06c.41-.12.82-.24,1.23-.38,25.08-8.27,18.57-.19,39.58-21.85,0,0-58.8-38.74-86.29,7.17"/><path class="cls-11" d="M229.49,261.64s-19.13-20.82-47.05-6.14c0,0-9.82,4.65-14.82,10.2C167.62,265.7,206.26,272.79,229.49,261.64Z"/><path class="cls-7" d="M211.62,259.59a10.1,10.1,0,0,0-6.34-9.37,38.09,38.09,0,0,0-7.94.18,10.09,10.09,0,0,0-.8,18c3.57-.06,7.25-.25,10.93-.63A10.09,10.09,0,0,0,211.62,259.59Z"/><path class="cls-12" d="M225.63,263.26c1.33-.49,2.62-1,3.86-1.62a29.69,29.69,0,0,0-3.5-3.08Z"/><path class="cls-13" d="M198.55,256.58c0,1.57-.82,2.85-1.84,2.85s-1.85-1.28-1.85-2.85.83-2.85,1.85-2.85S198.55,255,198.55,256.58Z"/><path class="cls-14" d="M208.23,259.94a6.69,6.69,0,1,1-6.69-6.69A6.68,6.68,0,0,1,208.23,259.94Z"/><path class="cls-10" d="M289.48,265.61s19.78,22.22,44.3,15.06c.41-.12.81-.24,1.23-.38,25.09-8.27,18.57-.19,39.58-21.85,0,0-58.8-38.74-86.29,7.17"/><path class="cls-11" d="M298.84,262.5s17.72-22,46.54-9.21c0,0,10.1,4,15.47,9.21C360.85,262.5,322.76,272.1,298.84,262.5Z"/><path class="cls-7" d="M336.62,258.16a9.9,9.9,0,0,0-6.23-9.19,38.52,38.52,0,0,0-7.89.25,9.89,9.89,0,0,0-1,17.34c3.6.12,7.18.06,10.63-.11A9.9,9.9,0,0,0,336.62,258.16Z"/><path class="cls-12" d="M302,259.36a29.2,29.2,0,0,0-3.11,3.14c1,.4,2.05.76,3.11,1.1Z"/><path class="cls-14" d="M333.41,258a6.69,6.69,0,1,1-6.68-6.68A6.68,6.68,0,0,1,333.41,258Z"/><path class="cls-13" d="M323.22,254.9c0,1.57-.82,2.85-1.84,2.85s-1.85-1.28-1.85-2.85.83-2.85,1.85-2.85S323.22,253.32,323.22,254.9Z"/><path class="cls-15" d="M389.42,165.61C331,57.52,245.3,77.53,245.3,77.53c-73.67,2.41-108.1,92.89-108.1,92.89l-14.41,41.37C92.9,342,142,416.23,142,416.23c83.27,122.51,179.36,63.26,179.36,63.26,67.26-51.25,78.47-116.9,78.47-116.9C417.45,248.88,389.42,165.61,389.42,165.61ZM367.27,412.49c-25.89,61.39-101.95,71.8-101.95,71.8-.81,6.41-39.69-9.87-39.69-9.87C136.31,448.8,123.86,323.88,123.86,323.88c-9.61-100.35,47-192.17,47-192.17,126-74.73,196.45,22.42,196.45,22.42C429.19,337.76,369.39,407.48,367.27,412.49Z"/><path class="cls-16" d="M404.05,339.37l4.8-27.23s13.94-23.49,13.94-39.5c0,0,7.47-28.23,13.88-26.4,0,0,35.23-25.91,26.69-56.87,0,0-4.27-53.38-42.71-96.09,0,0-74.73-69.39-96.08-80.07,0,0-26.4-6-45.49,0l-6.82,2.14H253s-50.51-2.93-76.87,8.54c-24.55,10.67-45.91,21.35-53.38,41.63S83.29,107.16,78,110.36c0,0-12.81,24.56-25.62,28.83,0,0-17.08,9.61-8.54-11.75,0,0-29.9,9.61,3.2,32,0,0-10.67,6.41-5.34,22.42l18.69,49.94s5.38,9.18,6.93,9.61c8.79,2.41,5.59,13.33,27.76,30.13l12.81,49.11,6.9,12.81S110,163.48,174,120.77c0,0,40.62-46.44,126.4-28.83,0,0,50.94,14.09,75.42,51.47,6,9.2,24.43,71.18,25.09,76S397.05,322.55,404.05,339.37Z"/><path class="cls-17" d="M282.33,30c-12.8-6.49-30.13-8.67-44.31-7.44a72.07,72.07,0,0,0-10,1.66c-32.47,2.25-63.8,19.75-87.32,41.72-17,15.91-29.87,35.39-43.88,53.86-15.52,20.49-32.07,39.29-53.54,53.73a.29.29,0,0,0-.12.39c-.32.49,0,1.24.71,1,25.33-9.28,43.18-30.23,60.38-50a310.28,310.28,0,0,1,43.58-41.65,240.85,240.85,0,0,0-16.34,20.64c-14.33,19.57-26,41.66-43,59.12-.39.41.25.92.64.56,9.23-8.41,16.85-18.29,24.12-28.48C132.76,116,151.47,96.18,174,80.49a186.54,186.54,0,0,1,37.27-19.81c13.74-5.52,27.55-8.1,42-10,2.23.19,4.47.38,6.71.55.56,0,1-.81.34-1s-1.37-.43-2.06-.65a.46.46,0,0,0-.42-.58l-1.74-.09c-15.39-4.35-32.65-4.13-48.38-.16a224,224,0,0,1,27.39-10c15-4.33,30.39-5.51,45.86-6.86a1,1,0,0,0,.44-.13l.33,0A1,1,0,0,0,282.33,30Z"/><path class="cls-17" d="M335.11,41.94s94.48,50.61,113.82,139.2c0,0-53.06-90.48-67.5-91.86,0,0,72.68,92.09,64.25,116.89,0,0-.47,21.49-6.82,25.58,0,0,20.07-49.16-60.43-129.61,0,0,81.89,123.23,41.85,147.28,0,0,29.5-33.85-46.19-141.61,0,0,36.72,62.7,33.57,95.59,0,0-35.54-124.39-115-123.18,0,0,39.13-2.81,74.16,29.3,0,0-23.22-34.88-58.54-40.75,0,0,36.06-3.82,59,29.78,0,0-22.81-36-66.6-41.67,0,0,44-3.84,69.53,35,0,0,.7-27.86-44.88-43.36s-46.78-15.24-46-15.34S335.11,41.94,335.11,41.94Z"/><path class="cls-10" d="M248.05,282.09c-5,26.53-13.69,32.25-13.69,32.25l-8.54,7.41S213,335.09,229,342.57c0,0,17.78-6.41,24.1,6.94,0,0,21.11,8.54,29.73-3.74,0,0,13-9.61,19.1-1.6,0,0,20.62-11.21,0-25.22,0,0-15.81-15.22-17-35.24"/><path class="cls-18" d="M250.23,282.87s-1.6,28.83-24,43.24c0,0-6,15.05,12,10.93a18.84,18.84,0,0,1,15.21,6.29s6.14-56.05,4.27-59C259.2,286.69,262.08,270.79,250.23,282.87Z"/><path class="cls-18" d="M282.46,282.61s.66,28.86,22.6,44c0,0,5.51,15.25-12.36,10.54a18.84,18.84,0,0,0-15.41,5.79s-4.31-56.23-2.35-59.1S276,275.59,282.46,282.61Z"/><path class="cls-18" d="M258.84,259.68,252,340.76s19,13.53,30-1.74L274.86,259S269,250.14,258.84,259.68Z"/><path class="cls-18" d="M250.23,282.87S257,247,255.44,235.53s-2.75-19.17-13.25-26.53c0,0-55.34-8.8-80.43,12.74l-26.16,8.58s21.55-101.14,65.94-106.61c0,0,57.16-34.7,98.9-8.54,0,0,48.95,17.61,61,37.37C365,158.37,379,200.6,381.15,223l3.21,12.52S364.23,200,321.71,202.18c0,0-35.63,1.95-42.54,13.52,0,0-7.45,33.72,3.29,66.91l-8,14.7Z"/><path class="cls-18" d="M135.6,268.37s53,41.61,106.59,11.2c0,0,7.29,21-21.23,41.78,0,0-11.23,28.82-5.65,35.23C215.31,356.58,111.23,446.66,135.6,268.37Z"/><path class="cls-18" d="M385.85,265.17s-49,38.4-98.39,10.33c0,0-1.91,20.95,24.4,40.17,0,0,9.85,27.66.42,38.92C312.28,354.59,413.18,456.8,385.85,265.17Z"/><path class="cls-19" d="M206.52,376.13l54.31-8.34V355.38s-55.37,11.21-64.48,18.42Z"/><path class="cls-19" d="M327.93,376.13l-54.31-8.34V355.38S329,366.59,338.1,373.8Z"/><path class="cls-20" d="M230.83,423.75c.12-7.18-6.46-48.28,31.28-49.11,43.52-1,32.92,50.17,32.92,50.17Z"/><path class="cls-20" d="M230.83,423.75c-.11,7.18-8,48.05,29.65,50.12C304,476.26,295,424.81,295,424.81Z"/><path class="cls-21" d="M292.85,424.77c-.35,21.56-13.79,38.81-30,38.55s-29.09-18-28.73-39.52,13.79-38.81,30-38.54S293.21,403.21,292.85,424.77Z"/><path class="cls-22" d="M243.47,453.12c3.84,5.69,7,10,19.93,10.2,9.33.15,15.3-5,19.49-10-3.19-.84-6.54-3.13-12.6-2-6.42,1.17-16-.52-20-.15C245.56,451.61,243.88,452.43,243.47,453.12Z"/><path class="cls-23" d="M263.45,385c-6-.1-11.6,3.07-16.31,7.07,12.87,0,21.2.84,32.11.64a6.78,6.78,0,0,0,1.69,0C276.25,388.16,269.71,385.07,263.45,385Z"/><path class="cls-24" d="M264.68,452.46c-.88-.4-3.37-.52-4,.07-.41.41-.22.83.11,1.24a12.59,12.59,0,0,0,.49,1.18c.37.85.48,2.8,1.7,3.42s1.14-.3,1.25-.85a15.54,15.54,0,0,1,.61-1.82C265.18,454.76,266.3,453.18,264.68,452.46Z"/></g></g></svg>